<?xml version="1.0" standalone="no"?>
<!DOCTYPE svg PUBLIC "-//W3C//DTD SVG 20010904//EN"
 "http://www.w3.org/TR/2001/REC-SVG-20010904/DTD/svg10.dtd">
<svg version="1.0" xmlns="http://www.w3.org/2000/svg"
 width="445.000000pt" height="445.000000pt" viewBox="0 0 445.000000 445.000000"
 preserveAspectRatio="xMidYMid meet">
<metadata>
Created by potrace 1.14, written by Peter Selinger 2001-2017
</metadata>
<g transform="translate(0.000000,445.000000) scale(0.100000,-0.100000)"
fill="#000000" stroke="none">
<path d="M0 2225 l0 -2225 2225 0 2225 0 0 2225 0 2225 -2225 0 -2225 0 0
-2225z m2745 1573 c28 -29 68 -72 89 -95 l38 -41 -32 -17 c-77 -40 -168 -145
-210 -242 l-22 -53 56 -61 c71 -76 109 -142 141 -243 76 -237 16 -495 -156
-672 l-50 -51 53 -35 c230 -152 378 -432 378 -712 0 -414 -293 -770 -699 -852
-111 -22 -294 -15 -399 15 -186 54 -347 166 -462 321 -52 70 -123 207 -114
222 3 4 74 8 157 8 l152 -1 34 -50 c123 -181 382 -278 596 -224 214 54 371
210 425 421 25 98 25 180 0 279 -40 156 -132 275 -285 370 -107 66 -170 90
-295 110 -238 38 -391 101 -472 195 -115 133 -170 275 -171 440 -2 129 12 188
70 309 83 173 249 308 438 356 77 19 244 19 318 0 32 -8 60 -15 62 -15 2 0 19
33 39 73 45 91 120 183 199 247 34 27 64 49 67 50 3 0 28 -24 55 -52z"/>
<path d="M2043 3202 c-181 -64 -287 -248 -248 -433 23 -112 74 -189 160 -245
108 -69 235 -81 358 -34 72 27 163 113 196 184 91 196 9 423 -187 514 -75 35
-201 41 -279 14z"/>
</g>
</svg>
