<svg width="19" height="19" viewBox="0 0 19 19" fill="none" xmlns="http://www.w3.org/2000/svg">
<path d="M9.30416 14.9893C8.94943 14.9893 8.65527 14.6951 8.65527 14.3404V11.7448C8.65527 11.3901 8.94943 11.0959 9.30416 11.0959C9.65888 11.0959 9.95304 11.3901 9.95304 11.7448V14.3404C9.95304 14.6951 9.65888 14.9893 9.30416 14.9893Z" fill="#2AA6B7"/>
<path d="M14.1499 18.2856H4.45987C2.88524 18.2856 1.44904 17.0744 1.18949 15.5257L0.0387976 8.63022C-0.151542 7.55739 0.376218 6.18173 1.23275 5.49824L7.22845 0.696486C8.38776 -0.23791 10.2133 -0.229258 11.3813 0.705137L17.377 5.49824C18.2249 6.18173 18.744 7.55739 18.5709 8.63022L17.4202 15.5171C17.1607 17.0484 15.6899 18.2856 14.1499 18.2856ZM9.2962 1.30211C8.83765 1.30211 8.37911 1.44054 8.04169 1.70875L2.04602 6.51915C1.56152 6.90848 1.21544 7.8083 1.31927 8.42258L2.46996 15.3094C2.62569 16.2179 3.53413 16.9879 4.45987 16.9879H14.1499C15.0756 16.9879 15.984 16.2179 16.1398 15.3008L17.2905 8.41392C17.3856 7.8083 17.0396 6.89118 16.5637 6.5105L10.568 1.7174C10.2219 1.44054 9.75474 1.30211 9.2962 1.30211Z" fill="#2AA6B7"/>
</svg>
